<?xml version="1.0" ?><svg id="Cloud_different_format_data" viewBox="0 0 512 512" xmlns="http://www.w3.org/2000/svg"><path d="M440.2329,168.26c31.7471,0,57.7637-25.5371,57.9971-56.9267A57.36,57.36,0,0,0,440.8716,53.54h-.1983a12.8781,12.8781,0,0,1-11.8017-7.5137,62.83,62.83,0,0,0-113.9649,0A12.8848,12.8848,0,0,1,303.0874,53.54h-.1807a57.36,57.36,0,0,0-57.3584,57.793c.2334,31.39,26.25,56.9267,57.9971,56.9267h62.5654V196.67a24.1309,24.1309,0,0,0-16.644,16.643H211.8784V113.7439a14.3187,14.3187,0,0,0-14.3027-14.3027H153.9023l-31.7407-31.74a6.4225,6.4225,0,0,0-.6567-.5649c-.0562-.043-.1123-.0847-.1695-.1255a6.506,6.506,0,0,0-.72-.4524l-.0215-.01a6.46,6.46,0,0,0-.76-.3345c-.06-.022-.1192-.0437-.1792-.0639a6.4822,6.4822,0,0,0-1.668-.3311c-.062-.0041-.124-.0071-.1865-.0093-.0781-.0029-.1558-.0117-.2344-.0117H31.4927A16.3781,16.3781,0,0,0,15.1333,82.157V254.9841a16.3781,16.3781,0,0,0,16.3594,16.3594H54.2583v18.9727A14.3187,14.3187,0,0,0,68.561,304.6189h57.7481v40.7H43.4761a20.8312,20.8312,0,0,0-16.1368,7.6125c-.01.012-.0214.022-.0312.034l-.0122.0161-.0122.0141c-.0215.0264-.0386.0545-.06.0809a20.9023,20.9023,0,0,0-4.6875,13.1916V476.8689a20.754,20.754,0,0,0,2.0972,9.1465l.0044.0117a21.0616,21.0616,0,0,0,18.8379,11.792h178.67a20.9836,20.9836,0,0,0,18.3076-10.7637l.0034-.0078.0093-.0146a21.0739,21.0739,0,0,0,2.62-10.1641V366.2683a20.9968,20.9968,0,0,0-4.7422-13.2678c-.0156-.0195-.0288-.0408-.0449-.06a20.89,20.89,0,0,0-16.1533-7.6211H139.3091v-40.7h58.2666a14.3187,14.3187,0,0,0,14.3027-14.3027v-64.003H349.4668a24.1318,24.1318,0,0,0,16.644,16.6438v67.3172H304.8052A21.34,21.34,0,0,0,283.49,331.59V480.823a16.3213,16.3213,0,0,0,16.3028,16.3027H445.4282a16.3212,16.3212,0,0,0,16.3027-16.3027V326.5769a16.3212,16.3212,0,0,0-16.3027-16.3027H379.1108V242.957a24.0373,24.0373,0,0,0,0-46.2868V168.26ZM224.9936,484.2888a7.9037,7.9037,0,0,1-2.8476.53H43.4761a7.955,7.955,0,0,1-3.6045-.8535L108.97,428.1841l8.5747,7.0129a24.3094,24.3094,0,0,0,30.5059-.0859l8.3769-6.8474Zm-72.68-69.4541-.0039.0034-12.4843,10.2056a11.2436,11.2436,0,0,1-14.084.0635l-12.63-10.3291-.0078-.0056-69.04-56.4534H132.751c.0195,0,.0385.0029.0581.0029s.0385-.0027.0581-.0029h88.6264ZM124.0659,87.99l15.2476,15.2471,15.2475,15.247H124.0659Zm39.6875,166.9941a3.3629,3.3629,0,0,1-3.3594,3.3594H31.4927a3.3629,3.3629,0,0,1-3.3594-3.3594V82.157a3.3629,3.3629,0,0,1,3.3594-3.3594h79.5732v46.1865a6.5,6.5,0,0,0,6.5,6.5h46.1875ZM448.7309,480.823a3.3062,3.3062,0,0,1-3.3027,3.3027H299.7925a3.3063,3.3063,0,0,1-3.3028-3.3027V444.3865l152.2412-.3174Zm0-154.2461v65.168l-9.2148-9.5061a22.66,22.66,0,0,0-32.66.12l-3.17,3.2563a9.64,9.64,0,0,0-1.29,11.795l19.6309,31.7387,1.2783,1.9732-12.9741.0271-40.6934-65.793a22.5513,22.5513,0,0,0-38.0606-.4463L296.49,418.7585V331.59a8.3251,8.3251,0,0,1,8.3155-8.3154h140.623A3.3062,3.3062,0,0,1,448.7309,326.5769ZM383.6538,219.8132a11.0435,11.0435,0,1,1-11.043-11.0429A11.056,11.056,0,0,1,383.6538,219.8132ZM258.5483,111.2371A44.3594,44.3594,0,0,1,302.9067,66.54h.1963a26.0865,26.0865,0,0,0,23.5928-15.0332,49.83,49.83,0,0,1,90.3867-.001A26.0783,26.0783,0,0,0,440.6577,66.54h.2139A44.36,44.36,0,0,1,485.23,111.2371c-.18,24.2734-20.3653,44.0224-44.9971,44.0224H303.5454C278.9136,155.26,258.728,135.5105,258.5483,111.2371Z"/><path d="M305.7485,79.7986h-.17a34.997,34.997,0,0,0-34.9971,35.2646,6.5,6.5,0,0,0,6.4991,6.4522h.0488a6.5,6.5,0,0,0,6.4521-6.5479,21.9965,21.9965,0,0,1,21.9971-22.1689h.17a6.5,6.5,0,0,0,0-13Z"/><path d="M53.0727,170.9919h49.9629a6.5,6.5,0,0,0,0-13H53.0727a6.5,6.5,0,0,0,0,13Z"/><path d="M53.0727,200.1726h49.9629a6.5,6.5,0,0,0,0-13H53.0727a6.5,6.5,0,0,0,0,13Z"/><path d="M46.5727,222.8542a6.5,6.5,0,0,0,6.5,6.5h79.3194a6.5,6.5,0,1,0,0-13H53.0727A6.5,6.5,0,0,0,46.5727,222.8542Z"/></svg>